<?xml version="1.0" encoding="UTF-8"?><svg id="Objects" xmlns="http://www.w3.org/2000/svg" viewBox="0 0 649.09 621.23"><defs><style>.cls-1{fill:#b8b8b8;}.cls-2{fill:#5c5c5c;}</style></defs><path class="cls-1" d="M624.27,385.93c-54.23,122.69-187.15,207.6-321.07,199.93-133.9-7.69-258.19-110.75-285.45-242.09C-9.52,212.44,63.89,57.52,191.83,17.2c131.59-41.47,170.82,2.61,233.04,21.9,89.36,27.69,181.12,79.06,212.73,167.12,20.8,57.93,11.57,123.42-13.32,179.71Z"/><path class="cls-2" d="M603.38,193.87c.35-28.66-4.69-56.37-17.03-82.38-12.01-25.33-30.28-47.33-52.6-64.23-25.27-19.13-55.48-29.48-86.2-36.08-26.3-5.65-53.27-7.65-80.06-4.86-55.99,5.83-112.63,23.02-155.26,61.2-25.55,22.88-41.2,52.81-59.65,81.16-9.32,14.32-19.74,27.56-32.4,39.09-12.68,11.54-26.67,21.48-40.27,31.88-13.18,10.08-26.17,20.56-37.14,33.07-10.13,11.56-18.61,24.53-25.12,38.45C4.41,319.43-1.44,351.01.3,382.16c3.52,63.12,38.27,120.89,86.17,160.81,53.15,44.3,120.9,66.89,188.85,75.09,69.58,8.4,142.48.79,205.79-30.63,53.77-26.68,99.23-71.99,122.52-127.63,5.66-13.51,9.89-27.53,12.61-41.93,13.5-75.15-13.77-148.91-12.86-224ZM511.24,555.33c-53.59,38.35-119.99,54.11-185.21,53.9-66.68-.22-135.78-15.05-193.75-48.82-52.62-30.65-96.46-79.28-113.26-138.65-16.23-57.35-4.21-123.8,38.29-167.08,22.8-23.22,51.55-39.4,75.03-61.87,24.01-22.97,38.68-52.77,56.95-80.05,17.66-26.36,40.6-47.43,68.44-62.68,25.91-14.2,54.03-22.46,82.97-27.73,20.73-3.77,41.51-6.1,62.62-5.1,30.28,1.44,61.92,8.23,89.81,20.19,49.98,21.44,86.19,67.54,95.86,120.96,2.53,13.99,2.26,27.83,2.39,41.97.17,18.07,1.88,36.09,4.14,54.01,4.51,35.81,11.3,71.45,12.5,107.6.59,17.63-.22,35.3-3.34,52.67-10.77,57.17-46.52,107.09-93.43,140.66Z"/></svg>