<?xml version="1.0" encoding="UTF-8"?><svg id="Layer_2" xmlns="http://www.w3.org/2000/svg" viewBox="0 0 1152 810"><defs><style>.cls-1{fill:#b8b8b8;}.cls-2{fill:#a0a0a0;}.cls-3{fill:#5c5c5c;}</style></defs><path class="cls-2" d="M630.04,0h-108.08v108.18h108.08V0h0ZM595.77,71.24h-36.91v-36.94h36.91v36.94ZM684.08,684.67v17.15h-216.16v-17.15h-34.27v29.63c0,14.91,15.27,24.45,30.17,24.45h234.12c14.9,0,23.06-9.54,23.06-24.45v-29.63h-36.9Z"/><path class="cls-1" d="M541.73,341.68H251.75v-159.1c0-9.91,13.06-20.32,22.96-20.32h252.13c9.91,0,14.88,10.4,14.88,20.32v159.1h0ZM900.25,341.68h-287.34v-159.1c0-9.91,12.09-20.32,21.99-20.32h252.13c9.91,0,13.22,10.4,13.22,20.32v159.1Z"/><path class="cls-3" d="M17.13,718.97h144.99v36.94H17.13v-36.94ZM991.19,718.97h143.67v36.94h-143.67v-36.94ZM1063.69,684.67h-36.91V92.46c0-29.82-19.92-58.16-49.71-58.16H184.67c-29.79,0-59.45,28.34-59.45,58.16v592.22h-34.27V92.46C90.95,42.76,135.02,0,184.67,0h792.4C1026.72,0,1063.69,42.76,1063.69,92.46v592.22h0Z"/><path class="cls-3" d="M1085.13,810H76.62c-39.72,0-76.62-28.9-76.62-68.65v-36.05c0-19.88,20.73-40.41,40.6-40.41h1080.55c19.86,0,30.85,20.53,30.85,40.41v36.05c0,39.76-27.15,68.65-66.87,68.65h0ZM36.91,701.82v39.52c0,19.88,19.85,31.72,39.71,31.72h1008.51c19.86,0,32.6-11.83,32.6-31.72v-39.52H36.91ZM991.19,630.59H162.12V128.51c0-29.82,28.77-57.27,58.57-57.27h720.36c29.79,0,50.14,27.45,50.14,57.27v502.08ZM199.03,593.65h755.26V128.51c0-9.94-3.3-20.33-13.23-20.33H220.69c-9.93,0-21.66,10.39-21.66,20.33v465.14h0Z"/><path class="cls-3" d="M251.75,377.3h289.98v35.62H251.75v-35.62ZM305.79,449.85h181.89v35.62h-181.89v-35.62ZM612.91,377.3h287.34v35.62h-287.34v-35.62ZM666.95,449.85h179.26v35.62h-179.26v-35.62Z"/></svg>