<?xml version="1.0" encoding="UTF-8"?><svg id="Layer_1" xmlns="http://www.w3.org/2000/svg" viewBox="0 0 1222.11 810"><defs><style>.cls-1{fill:#2a2a2a;}.cls-2{fill:#121212;}.cls-2,.cls-3,.cls-4{fill-rule:evenodd;}.cls-5{fill:#b8b8b8;}.cls-6,.cls-3{fill:#fff;}.cls-7{fill:#1f3140;}.cls-8{fill:#a0a0a0;}.cls-9{fill:#d1d1d1;}.cls-10{fill:#5c5c5c;}</style></defs><rect class="cls-6" x="35.58" y="4" width="1157.26" height="745.16" rx="12" ry="12"/><path class="cls-10" d="M1180.84,8c4.41,0,8,3.59,8,8v721.16c0,4.41-3.59,8-8,8H47.58c-4.41,0-8-3.59-8-8V16c0-4.41,3.59-8,8-8h1133.26M1180.84,0H47.58c-8.84,0-16,7.16-16,16v721.16c0,8.84,7.16,16,16,16h1133.26c8.84,0,16-7.16,16-16V16c0-8.84-7.16-16-16-16h0Z"/><rect class="cls-8" x="64.56" y="37.89" width="1099.3" height="677.37"/><path class="cls-3" d="M16,806c-6.62,0-12-5.38-12-12v-51.05h1214.11v51.05c0,6.62-5.38,12-12,12H16Z"/><path class="cls-10" d="M1214.11,746.95v47.05c0,4.41-3.59,8-8,8H16c-4.41,0-8-3.59-8-8v-47.05h1206.11M1222.11,738.95H0v55.05c0,8.84,7.16,16,16,16h1190.11c8.84,0,16-7.16,16-16v-55.05h0Z"/><g id="Notch"><path class="cls-3" d="M582.62,777.58c-10.33,0-20.04-4.27-28.09-12.34-5.02-5.04-9.12-11.33-12.01-18.43h165.47c-2.89,7.09-6.98,13.39-12.01,18.43-8.05,8.07-17.77,12.34-28.09,12.34h-85.28Z"/><path class="cls-10" d="M701.7,750.81c-2.35,4.37-5.23,8.28-8.54,11.6-7.29,7.3-16.02,11.16-25.26,11.16h-85.28c-9.24,0-17.97-3.86-25.26-11.16-3.31-3.32-6.19-7.24-8.54-11.6h152.87M713.67,742.81h-176.82c3.08,9.95,8.25,18.64,14.85,25.25,8.43,8.45,19.19,13.51,30.92,13.51h85.28c11.72,0,22.49-5.07,30.92-13.51,6.6-6.61,11.77-15.3,14.85-25.25h0Z"/></g><rect class="cls-10" x="83.11" y="256" width="595" height="442" rx="4" ry="4"/><path class="cls-10" d="M674.11,260v434H87.11v-434h587M674.11,252H87.11c-4.42,0-8,3.58-8,8v434c0,4.42,3.58,8,8,8h587c4.42,0,8-3.58,8-8v-434c0-4.42-3.58-8-8-8h0Z"/><path class="cls-2" d="M87.11,698c-2.21,0-4-1.79-4-4v-411h595v411c0,2.21-1.79,4-4,4H87.11Z"/><path class="cls-7" d="M674.11,287v407H87.11v-407h587M682.11,279H79.11v415c0,4.42,3.58,8,8,8h587c4.42,0,8-3.58,8-8v-415h0Z"/><rect class="cls-8" x="646.11" y="261" width="27" height="18" rx="8" ry="8"/><rect class="cls-5" x="610.11" y="261" width="27" height="18" rx="8" ry="8"/><rect class="cls-6" x="574.11" y="261" width="27" height="18" rx="8" ry="8"/><path class="cls-4" d="M87.11,698c-2.21,0-4-1.79-4-4v-411h595v411c0,2.21-1.79,4-4,4H87.11Z"/><path class="cls-10" d="M674.11,287v407H87.11v-407h587M682.11,279H79.11v415c0,4.42,3.58,8,8,8h587c4.42,0,8-3.58,8-8v-415h0Z"/><rect class="cls-1" x="133.11" y="333" width="9" height="9" rx="4.5" ry="4.5"/><rect class="cls-10" x="178.11" y="333" width="45" height="9" rx="4.5" ry="4.5"/><rect class="cls-5" x="232.11" y="333" width="27" height="9" rx="4.5" ry="4.5"/><rect class="cls-6" x="160.11" y="333" width="9" height="9" rx="4.5" ry="4.5"/><rect class="cls-6" x="268.11" y="333" width="9" height="9" rx="4.5" ry="4.5"/><rect class="cls-1" x="133.11" y="360.82" width="9" height="9" rx="4.5" ry="4.5"/><rect class="cls-10" x="178.11" y="360.82" width="27" height="9" rx="4.5" ry="4.5"/><rect class="cls-5" x="214.11" y="360.82" width="27" height="9" rx="4.5" ry="4.5"/><rect class="cls-8" x="250.11" y="360.82" width="18" height="9" rx="4.5" ry="4.5"/><rect class="cls-6" x="160.11" y="360.82" width="9" height="9" rx="4.5" ry="4.5"/><rect class="cls-6" x="277.11" y="360.82" width="9" height="9" rx="4.5" ry="4.5"/><rect class="cls-1" x="133.11" y="388.64" width="9" height="9" rx="4.5" ry="4.5"/><rect class="cls-10" x="214.11" y="388.64" width="27" height="9" rx="4.5" ry="4.5"/><rect class="cls-6" x="196.11" y="388.64" width="9" height="9" rx="4.5" ry="4.5"/><rect class="cls-6" x="250.11" y="388.64" width="9" height="9" rx="4.5" ry="4.5"/><rect class="cls-1" x="133.11" y="416.45" width="9" height="9" rx="4.5" ry="4.5"/><rect class="cls-10" x="250.11" y="416.45" width="27" height="9" rx="4.5" ry="4.5"/><rect class="cls-5" x="286.11" y="416.45" width="36" height="9" rx="4.5" ry="4.5"/><rect class="cls-8" x="331.11" y="416.45" width="18" height="9" rx="4.5" ry="4.5"/><rect class="cls-6" x="232.11" y="416.45" width="9" height="9" rx="4.5" ry="4.5"/><rect class="cls-6" x="358.11" y="416.45" width="9" height="9" rx="4.5" ry="4.5"/><rect class="cls-1" x="133.11" y="444.27" width="9" height="9" rx="4.5" ry="4.5"/><rect class="cls-10" x="250.11" y="444.27" width="27" height="9" rx="4.5" ry="4.5"/><rect class="cls-5" x="286.11" y="444.27" width="27" height="9" rx="4.5" ry="4.5"/><rect class="cls-5" x="367.11" y="444.27" width="36" height="9" rx="4.5" ry="4.5"/><rect class="cls-8" x="322.11" y="444.27" width="36" height="9" rx="4.5" ry="4.5"/><rect class="cls-8" x="412.11" y="444.27" width="126" height="9" rx="4.5" ry="4.5"/><rect class="cls-6" x="232.11" y="444.27" width="9" height="9" rx="4.5" ry="4.5"/><rect class="cls-6" x="547.11" y="444.27" width="9" height="9" rx="4.5" ry="4.5"/><rect class="cls-1" x="133.11" y="499.91" width="9" height="9" rx="4.5" ry="4.5"/><rect class="cls-10" x="214.11" y="499.91" width="27" height="9" rx="4.5" ry="4.5"/><rect class="cls-6" x="196.11" y="499.91" width="9" height="9" rx="4.5" ry="4.5"/><rect class="cls-6" x="250.11" y="499.91" width="9" height="9" rx="4.5" ry="4.5"/><rect class="cls-1" x="133.11" y="472.09" width="9" height="9" rx="4.5" ry="4.5"/><rect class="cls-10" x="232.11" y="472.09" width="27" height="9" rx="4.5" ry="4.5"/><rect class="cls-6" x="196.11" y="472.09" width="9" height="9" rx="4.5" ry="4.5"/><rect class="cls-6" x="268.11" y="472.09" width="9" height="9" rx="4.5" ry="4.5"/><rect class="cls-6" x="214.11" y="472.09" width="9" height="9" rx="4.5" ry="4.5"/><rect class="cls-1" x="133.11" y="527.73" width="9" height="9" rx="4.5" ry="4.5"/><rect class="cls-10" x="250.11" y="527.73" width="27" height="9" rx="4.5" ry="4.5"/><rect class="cls-5" x="286.11" y="527.73" width="36" height="9" rx="4.5" ry="4.5"/><rect class="cls-8" x="331.11" y="527.73" width="18" height="9" rx="4.5" ry="4.5"/><rect class="cls-6" x="232.11" y="527.73" width="9" height="9" rx="4.5" ry="4.5"/><rect class="cls-6" x="358.11" y="527.73" width="9" height="9" rx="4.5" ry="4.5"/><rect class="cls-1" x="133.11" y="639" width="9" height="9" rx="4.5" ry="4.5"/><rect class="cls-10" x="196.11" y="639" width="27" height="9" rx="4.5" ry="4.5"/><rect class="cls-6" x="160.11" y="639" width="9" height="9" rx="4.5" ry="4.5"/><rect class="cls-6" x="232.11" y="639" width="9" height="9" rx="4.5" ry="4.5"/><rect class="cls-6" x="178.11" y="639" width="9" height="9" rx="4.5" ry="4.5"/><rect class="cls-1" x="133.11" y="611.18" width="9" height="9" rx="4.5" ry="4.5"/><rect class="cls-10" x="232.11" y="611.18" width="27" height="9" rx="4.5" ry="4.5"/><rect class="cls-6" x="196.11" y="611.18" width="9" height="9" rx="4.5" ry="4.5"/><rect class="cls-6" x="268.11" y="611.18" width="9" height="9" rx="4.5" ry="4.5"/><rect class="cls-6" x="214.11" y="611.18" width="9" height="9" rx="4.5" ry="4.5"/><rect class="cls-1" x="133.11" y="555.55" width="9" height="9" rx="4.5" ry="4.5"/><rect class="cls-6" x="340.11" y="555.55" width="126" height="9" rx="4.5" ry="4.5"/><rect class="cls-10" x="286.11" y="555.55" width="27" height="9" rx="4.5" ry="4.5"/><rect class="cls-6" x="268.11" y="555.55" width="9" height="9" rx="4.5" ry="4.5"/><rect class="cls-6" x="322.11" y="555.55" width="9" height="9" rx="4.5" ry="4.5"/><rect class="cls-10" x="511.11" y="555.55" width="27" height="9" rx="4.5" ry="4.5"/><rect class="cls-6" x="475.11" y="555.55" width="9" height="9" rx="4.5" ry="4.5"/><rect class="cls-6" x="547.11" y="555.55" width="9" height="9" rx="4.5" ry="4.5"/><rect class="cls-6" x="493.11" y="555.55" width="9" height="9" rx="4.5" ry="4.5"/><rect class="cls-1" x="133.11" y="583.36" width="9" height="9" rx="4.5" ry="4.5"/><rect class="cls-10" x="268.11" y="583.36" width="27" height="9" rx="4.5" ry="4.5"/><rect class="cls-6" x="232.11" y="583.36" width="9" height="9" rx="4.5" ry="4.5"/><rect class="cls-6" x="304.11" y="583.36" width="9" height="9" rx="4.5" ry="4.5"/><rect class="cls-6" x="250.11" y="583.36" width="9" height="9" rx="4.5" ry="4.5"/><rect class="cls-10" x="704.11" y="58" width="442" height="442" rx="4" ry="4"/><path class="cls-10" d="M1142.11,62v434h-434V62h434M1142.11,54h-434c-4.42,0-8,3.58-8,8v434c0,4.42,3.58,8,8,8h434c4.42,0,8-3.58,8-8V62c0-4.42-3.58-8-8-8h0Z"/><path class="cls-3" d="M708.11,500c-2.21,0-4-1.79-4-4V85h442v411c0,2.21-1.79,4-4,4h-434Z"/><path class="cls-10" d="M1142.11,89v407h-434V89h434M1150.11,81h-450v415c0,4.42,3.58,8,8,8h434c4.42,0,8-3.58,8-8V81h0Z"/><rect class="cls-8" x="1114.11" y="63" width="27" height="18" rx="8" ry="8"/><rect class="cls-5" x="1078.11" y="63" width="27" height="18" rx="8" ry="8"/><rect class="cls-6" x="1042.11" y="63" width="27" height="18" rx="8" ry="8"/><rect class="cls-6" x="704.11" y="85" width="442" height="64"/><path class="cls-10" d="M1142.11,89v56h-434v-56h434M1150.11,81h-450v72h450v-72h0Z"/><rect class="cls-1" x="718.11" y="126" width="36" height="9" rx="4.5" ry="4.5"/><rect class="cls-1" x="763.11" y="126" width="36" height="9" rx="4.5" ry="4.5"/><rect class="cls-1" x="808.11" y="126" width="36" height="9" rx="4.5" ry="4.5"/><rect class="cls-1" x="808.11" y="279" width="234" height="9" rx="4.5" ry="4.5"/><rect class="cls-1" x="853.11" y="126" width="36" height="9" rx="4.5" ry="4.5"/><rect class="cls-1" x="898.11" y="126" width="36" height="9" rx="4.5" ry="4.5"/><rect class="cls-1" x="943.11" y="126" width="36" height="9" rx="4.5" ry="4.5"/><rect class="cls-1" x="988.11" y="126" width="36" height="9" rx="4.5" ry="4.5"/><rect class="cls-9" x="772.11" y="99" width="306" height="18" rx="8" ry="8"/><circle class="cls-9" cx="754.11" cy="108" r="9"/><circle class="cls-9" cx="727.11" cy="108" r="9"/><circle class="cls-5" cx="1123.11" cy="108" r="9"/><circle class="cls-9" cx="1096.11" cy="108" r="9"/><rect class="cls-8" x="754.11" y="171" width="36" height="36" rx="8" ry="8"/><rect class="cls-9" x="754.11" y="333" width="108" height="144" rx="8" ry="8"/><rect class="cls-9" x="871.11" y="333" width="108" height="144" rx="8" ry="8"/><rect class="cls-9" x="988.11" y="333" width="108" height="144" rx="8" ry="8"/><rect class="cls-8" x="1042.11" y="180" width="54" height="18" rx="8" ry="8"/><rect class="cls-1" x="979.11" y="180" width="54" height="18" rx="8" ry="8"/><rect class="cls-1" x="781.11" y="252" width="288" height="18" rx="8" ry="8"/><circle class="cls-8" cx="808.11" cy="369" r="18"/><circle class="cls-8" cx="925.11" cy="369" r="18"/><circle class="cls-8" cx="1042.11" cy="369" r="18"/><rect class="cls-1" x="763.11" y="396" width="90" height="72" rx="4.5" ry="4.5"/><rect class="cls-1" x="880.11" y="396" width="90" height="72" rx="4.5" ry="4.5"/><rect class="cls-1" x="997.11" y="396" width="90" height="72" rx="4.5" ry="4.5"/></svg>